<svg xmlns="http://www.w3.org/2000/svg" xmlns:xlink="http://www.w3.org/1999/xlink" width="1000" zoomAndPan="magnify" viewBox="0 0 750 749.999995" height="1000" preserveAspectRatio="xMidYMid meet" version="1.0"><defs><clipPath id="17383ec40d"><path d="M 55.375 53.742188 L 374.875 53.742188 L 374.875 83.238281 L 55.375 83.238281 Z M 55.375 83.238281 L 84.871094 83.238281 L 84.871094 666.75 L 55.375 666.75 Z M 55.375 666.75 L 374.875 666.75 L 374.875 696.246094 L 55.375 696.246094 Z M 55.375 666.75 " clip-rule="nonzero"/></clipPath><clipPath id="ac4679db9a"><path d="M 375 53.742188 L 694.5 53.742188 L 694.5 83.238281 L 375 83.238281 Z M 665.121094 83.238281 L 694.5 83.238281 L 694.5 666.75 L 665.121094 666.75 Z M 375 666.75 L 694.5 666.75 L 694.5 696.246094 L 375 696.246094 Z M 375 666.75 " clip-rule="nonzero"/></clipPath><clipPath id="7dc3d9d677"><path d="M 161.542969 245.296875 L 430.042969 245.296875 L 430.042969 504.722656 L 161.542969 504.722656 Z M 161.542969 245.296875 " clip-rule="nonzero"/></clipPath><clipPath id="faa626c4c0"><path d="M 375 245 L 598.5 245 L 598.5 505 L 375 505 Z M 375 245 " clip-rule="nonzero"/></clipPath></defs><g clip-path="url(#17383ec40d)"><path fill="#a6a6a6" d="M 55.375 53.742188 L 55.375 696.246094 L 374.875 696.246094 L 374.875 53.742188 Z M 55.375 53.742188 " fill-opacity="1" fill-rule="nonzero"/></g><g clip-path="url(#ac4679db9a)"><path fill="#ff0000" d="M 694.5 53.742188 L 694.5 696.246094 L 375 696.246094 L 375 53.742188 Z M 694.5 53.742188 " fill-opacity="1" fill-rule="nonzero"/></g><g clip-path="url(#7dc3d9d677)"><path fill="#a6a6a6" d="M 161.542969 504.722656 L 161.542969 497.800781 C 170.519531 496.179688 177.316406 493.3125 181.929688 489.199219 C 188.535156 483.085938 194.398438 473.738281 199.511719 461.140625 L 287.984375 245.292969 L 294.902344 245.292969 L 389.921875 463.945312 C 394.785156 475.171875 398.210938 482.027344 400.207031 484.519531 C 403.324219 488.386719 407.15625 491.410156 411.710938 493.59375 C 416.261719 495.773438 422.402344 497.175781 430.132812 497.800781 L 430.132812 504.722656 L 326.511719 504.722656 L 326.511719 497.800781 C 338.234375 496.679688 345.839844 494.683594 349.332031 491.816406 C 352.824219 488.949219 354.570312 485.273438 354.570312 480.78125 C 354.570312 474.546875 351.703125 464.820312 345.964844 451.601562 L 281.4375 302.902344 L 221.582031 449.730469 C 215.722656 464.195312 212.789062 474.234375 212.789062 479.847656 C 212.789062 483.460938 214.597656 486.921875 218.214844 490.226562 C 221.828125 493.53125 227.941406 495.867188 236.546875 497.238281 C 237.167969 497.363281 238.230469 497.550781 239.722656 497.800781 L 239.722656 504.722656 L 161.542969 504.722656 " fill-opacity="1" fill-rule="nonzero"/></g><g clip-path="url(#faa626c4c0)"><path fill="#ff0000" d="M 595.6875 245.09375 L 425 489.152344 L 531.511719 489.152344 C 547.855469 489.152344 560.402344 485.574219 569.152344 478.421875 C 577.902344 471.273438 585.660156 456.777344 592.429688 434.9375 L 598.75 436.085938 L 586.488281 504.859375 L 375 504.859375 L 375 497.773438 L 541.660156 260.613281 L 458.523438 260.613281 C 444.730469 260.613281 434.738281 262.113281 428.542969 265.113281 C 422.347656 268.113281 417.625 272.457031 414.367188 278.140625 C 411.109375 283.824219 408.140625 294.457031 405.460938 310.035156 L 398.179688 310.035156 L 403.542969 245.09375 L 595.6875 245.09375 " fill-opacity="1" fill-rule="nonzero"/></g></svg>